<svg xmlns="http://www.w3.org/2000/svg" xmlns:xlink="http://www.w3.org/1999/xlink" width="1080" zoomAndPan="magnify" viewBox="0 0 810 809.999993" height="1080" preserveAspectRatio="xMidYMid meet" version="1.0"><defs><g/><clipPath id="80d5e39a54"><path d="M 393.261719 304.210938 L 542.511719 304.210938 L 542.511719 505.960938 L 393.261719 505.960938 Z M 393.261719 304.210938 " clip-rule="nonzero"/></clipPath><clipPath id="a20a77c14c"><path d="M 416.15625 349.640625 L 519.65625 349.640625 L 519.65625 381.890625 L 416.15625 381.890625 Z M 416.15625 349.640625 " clip-rule="nonzero"/></clipPath></defs><path fill="#38b6ff" d="M 150.839844 209.671875 L 659.488281 209.671875 C 713.464844 209.671875 757.21875 253.398438 757.21875 307.335938 L 757.21875 502.664062 C 757.21875 556.601562 713.464844 600.328125 659.488281 600.328125 L 150.839844 600.328125 C 96.867188 600.328125 53.113281 556.601562 53.113281 502.664062 L 53.113281 307.335938 C 53.113281 253.398438 96.867188 209.671875 150.839844 209.671875 " fill-opacity="1" fill-rule="nonzero"/><g fill="#000000" fill-opacity="1"><g transform="translate(147.720728, 481.826374)"><g><path d="M 10.40625 0 C 9.769531 0 9.453125 -0.394531 9.453125 -1.1875 L 9.921875 -163.5625 C 9.921875 -164.1875 10.238281 -164.5 10.875 -164.5 L 39.703125 -164.5 C 40.335938 -164.5 40.890625 -164.1875 41.359375 -163.5625 L 62.875 -132.359375 L 84.375 -163.5625 C 84.851562 -164.1875 85.40625 -164.5 86.03125 -164.5 L 115.109375 -164.5 C 115.734375 -164.5 116.046875 -164.1875 116.046875 -163.5625 L 116.53125 -1.1875 C 116.53125 -0.394531 116.210938 0 115.578125 0 L 88.875 0 C 88.238281 0 87.921875 -0.394531 87.921875 -1.1875 L 87.6875 -121.71875 L 62.875 -85.796875 L 38.296875 -121.71875 L 38.046875 -1.1875 C 38.046875 -0.394531 37.734375 0 37.109375 0 Z M 10.40625 0 "/></g></g></g><g fill="#000000" fill-opacity="1"><g transform="translate(274.638564, 481.826374)"><g><path d="M 11.578125 0 C 10.316406 0 9.6875 -0.550781 9.6875 -1.65625 L 9.453125 -162.609375 C 9.453125 -163.867188 10.082031 -164.5 11.34375 -164.5 L 32.625 -164.5 L 72.5625 -71.375 L 71.375 -162.609375 C 71.375 -163.867188 72.082031 -164.5 73.5 -164.5 L 96.90625 -164.5 C 97.851562 -164.5 98.328125 -163.867188 98.328125 -162.609375 L 98.5625 -1.421875 C 98.5625 -0.472656 98.164062 0 97.375 0 L 76.578125 0 L 35.6875 -86.984375 L 37.34375 -1.890625 C 37.34375 -0.628906 36.632812 0 35.21875 0 Z M 11.578125 0 "/></g></g></g><g fill="#000000" fill-opacity="1"><g transform="translate(384.3052, 481.826374)"><g/></g></g><g fill="#000000" fill-opacity="1"><g transform="translate(419.284412, 481.826374)"><g/></g></g><g fill="#000000" fill-opacity="1"><g transform="translate(454.263625, 481.826374)"><g/></g></g><g fill="#000000" fill-opacity="1"><g transform="translate(489.242838, 481.826374)"><g/></g></g><g fill="#000000" fill-opacity="1"><g transform="translate(524.22205, 481.826374)"><g/></g></g><g fill="#000000" fill-opacity="1"><g transform="translate(559.215539, 481.826374)"><g><path d="M 49.640625 2.359375 C 41.128906 2.359375 33.367188 0.191406 26.359375 -4.140625 C 19.347656 -8.472656 13.753906 -14.222656 9.578125 -21.390625 C 5.398438 -28.554688 3.3125 -36.472656 3.3125 -45.140625 L 3.3125 -56.015625 C 3.3125 -56.804688 3.703125 -57.203125 4.484375 -57.203125 L 30.96875 -57.203125 C 31.59375 -57.203125 31.90625 -56.804688 31.90625 -56.015625 L 31.90625 -45.140625 C 31.90625 -39.941406 33.640625 -35.488281 37.109375 -31.78125 C 40.578125 -28.082031 44.753906 -26.234375 49.640625 -26.234375 C 54.523438 -26.234375 58.695312 -28.125 62.15625 -31.90625 C 65.625 -35.6875 67.359375 -40.097656 67.359375 -45.140625 C 67.359375 -50.972656 63.578125 -56.015625 56.015625 -60.265625 C 53.492188 -61.691406 49.550781 -63.898438 44.1875 -66.890625 C 38.832031 -69.878906 33.796875 -72.71875 29.078125 -75.40625 C 20.410156 -80.445312 13.988281 -86.785156 9.8125 -94.421875 C 5.632812 -102.066406 3.546875 -110.695312 3.546875 -120.3125 C 3.546875 -129.132812 5.671875 -137.050781 9.921875 -144.0625 C 14.179688 -151.070312 19.816406 -156.625 26.828125 -160.71875 C 33.835938 -164.820312 41.441406 -166.875 49.640625 -166.875 C 57.984375 -166.875 65.660156 -164.785156 72.671875 -160.609375 C 79.691406 -156.429688 85.285156 -150.835938 89.453125 -143.828125 C 93.628906 -136.816406 95.71875 -128.976562 95.71875 -120.3125 L 95.71875 -100.921875 C 95.71875 -100.296875 95.40625 -99.984375 94.78125 -99.984375 L 68.3125 -99.984375 C 67.675781 -99.984375 67.359375 -100.296875 67.359375 -100.921875 L 67.125 -120.3125 C 67.125 -125.820312 65.390625 -130.3125 61.921875 -133.78125 C 58.453125 -137.25 54.359375 -138.984375 49.640625 -138.984375 C 44.753906 -138.984375 40.578125 -137.128906 37.109375 -133.421875 C 33.640625 -129.722656 31.90625 -125.351562 31.90625 -120.3125 C 31.90625 -115.101562 33.007812 -110.765625 35.21875 -107.296875 C 37.425781 -103.835938 41.441406 -100.53125 47.265625 -97.375 C 48.054688 -96.90625 49.59375 -96.078125 51.875 -94.890625 C 54.164062 -93.710938 56.648438 -92.375 59.328125 -90.875 C 62.003906 -89.382812 64.40625 -88.085938 66.53125 -86.984375 C 68.65625 -85.878906 69.957031 -85.171875 70.4375 -84.859375 C 78.3125 -80.441406 84.535156 -75.039062 89.109375 -68.65625 C 93.679688 -62.28125 95.96875 -54.441406 95.96875 -45.140625 C 95.96875 -36.160156 93.878906 -28.082031 89.703125 -20.90625 C 85.523438 -13.738281 79.929688 -8.066406 72.921875 -3.890625 C 65.910156 0.273438 58.148438 2.359375 49.640625 2.359375 Z M 49.640625 2.359375 "/></g></g></g><g clip-path="url(#80d5e39a54)"><path fill="#000000" d="M 533.480469 505.085938 C 532.28125 505.082031 531.128906 504.839844 530.027344 504.363281 C 528.925781 503.886719 527.964844 503.210938 527.140625 502.335938 L 467.886719 439.582031 L 408.632812 502.335938 C 408.03125 502.96875 407.347656 503.496094 406.589844 503.925781 C 405.828125 504.355469 405.023438 504.664062 404.167969 504.851562 C 403.316406 505.035156 402.457031 505.09375 401.585938 505.023438 C 400.714844 504.953125 399.875 504.757812 399.0625 504.4375 C 398.25 504.117188 397.503906 503.683594 396.824219 503.136719 C 396.140625 502.59375 395.554688 501.960938 395.0625 501.238281 C 394.570312 500.519531 394.195312 499.742188 393.9375 498.910156 C 393.679688 498.078125 393.546875 497.222656 393.542969 496.351562 L 393.542969 312.945312 C 393.542969 312.371094 393.601562 311.800781 393.710938 311.238281 C 393.824219 310.675781 393.992188 310.132812 394.210938 309.601562 C 394.429688 309.070312 394.699219 308.566406 395.019531 308.089844 C 395.335938 307.613281 395.699219 307.171875 396.105469 306.769531 C 396.511719 306.363281 396.953125 306 397.429688 305.679688 C 397.910156 305.363281 398.414062 305.09375 398.945312 304.875 C 399.472656 304.65625 400.019531 304.488281 400.585938 304.378906 C 401.148438 304.265625 401.714844 304.210938 402.289062 304.210938 L 533.480469 304.210938 C 534.054688 304.210938 534.625 304.265625 535.1875 304.378906 C 535.75 304.488281 536.296875 304.65625 536.828125 304.875 C 537.359375 305.09375 537.863281 305.363281 538.339844 305.679688 C 538.816406 306 539.257812 306.363281 539.664062 306.769531 C 540.070312 307.171875 540.433594 307.613281 540.753906 308.089844 C 541.074219 308.566406 541.34375 309.070312 541.5625 309.601562 C 541.78125 310.132812 541.949219 310.675781 542.058594 311.238281 C 542.171875 311.800781 542.226562 312.371094 542.226562 312.945312 L 542.226562 496.351562 C 542.226562 496.925781 542.171875 497.492188 542.058594 498.054688 C 541.949219 498.617188 541.78125 499.164062 541.5625 499.695312 C 541.34375 500.226562 541.074219 500.726562 540.753906 501.203125 C 540.433594 501.679688 540.070312 502.121094 539.664062 502.527344 C 539.257812 502.933594 538.816406 503.296875 538.339844 503.613281 C 537.863281 503.933594 537.359375 504.203125 536.828125 504.421875 C 536.296875 504.640625 535.75 504.804688 535.1875 504.917969 C 534.625 505.03125 534.054688 505.085938 533.480469 505.085938 Z M 467.886719 418.316406 C 469.085938 418.320312 470.238281 418.5625 471.339844 419.039062 C 472.441406 419.519531 473.402344 420.195312 474.226562 421.066406 L 524.734375 474.519531 L 524.734375 321.675781 L 411.035156 321.675781 L 411.035156 474.519531 L 461.546875 421.023438 C 462.371094 420.15625 463.335938 419.488281 464.4375 419.019531 C 465.539062 418.550781 466.6875 418.316406 467.886719 418.316406 Z M 467.886719 418.316406 " fill-opacity="1" fill-rule="nonzero"/></g><g clip-path="url(#a20a77c14c)"><path fill="#000000" d="M 519.339844 363.523438 C 519.402344 365.039062 517.980469 366.351562 516.5 366.351562 C 516.109375 366.351562 515.738281 366.351562 515.367188 366.351562 C 513.414062 366.351562 511.4375 366.351562 509.484375 366.351562 C 509.484375 367.132812 509.484375 367.929688 509.484375 368.730469 C 509.484375 369.796875 509.484375 370.863281 509.484375 371.929688 C 509.484375 374.46875 508.554688 376.871094 506.847656 378.753906 C 505.015625 380.765625 502.300781 381.871094 499.585938 381.890625 C 498.636719 381.890625 497.710938 381.890625 496.765625 381.890625 C 493.679688 381.890625 490.574219 381.890625 487.484375 381.890625 C 485.859375 381.890625 484.253906 381.789062 482.691406 381.359375 C 481.230469 380.929688 479.769531 380.292969 478.515625 379.410156 C 477.054688 378.386719 475.878906 377.21875 474.8125 375.78125 C 473.019531 373.34375 471.578125 370.515625 470.859375 367.582031 C 470.714844 366.988281 470.59375 366.394531 470.511719 365.796875 C 470.386719 365.738281 470.261719 365.65625 470.117188 365.59375 C 469.644531 365.429688 469.152344 365.285156 468.65625 365.203125 C 468.164062 365.164062 467.648438 365.164062 467.15625 365.203125 C 466.664062 365.285156 466.167969 365.410156 465.695312 365.59375 C 465.570312 365.65625 465.425781 365.738281 465.304688 365.796875 C 465.222656 366.332031 465.117188 366.863281 464.996094 367.398438 C 464.605469 369.015625 463.964844 370.617188 463.226562 372.113281 C 462.609375 373.363281 461.886719 374.550781 461.066406 375.679688 C 460.015625 377.117188 458.84375 378.285156 457.382812 379.328125 C 455.035156 381.011719 452.074219 381.871094 449.191406 381.871094 C 448.308594 381.871094 447.445312 381.871094 446.558594 381.871094 C 443.429688 381.871094 440.324219 381.871094 437.195312 381.871094 C 435.777344 381.871094 434.316406 381.832031 432.957031 381.320312 C 431.476562 380.765625 430.117188 379.964844 429.027344 378.796875 C 427.957031 377.628906 427.132812 376.234375 426.703125 374.714844 C 426.332031 373.425781 426.332031 372.113281 426.332031 370.78125 C 426.332031 369.304688 426.332031 367.808594 426.332031 366.3125 C 423.984375 366.3125 421.660156 366.3125 419.316406 366.3125 C 417.730469 366.3125 416.539062 365.019531 416.476562 363.480469 C 416.414062 361.964844 417.832031 360.652344 419.316406 360.671875 C 419.644531 360.671875 419.992188 360.671875 420.324219 360.671875 C 422.339844 360.671875 424.335938 360.671875 426.332031 360.671875 C 426.332031 360.121094 426.332031 359.585938 426.332031 359.03125 C 426.351562 357.433594 426.765625 355.875 427.523438 354.460938 C 429.089844 351.609375 432.132812 349.847656 435.363281 349.664062 C 436.085938 349.640625 436.804688 349.664062 437.527344 349.664062 C 440.757812 349.664062 443.964844 349.664062 447.195312 349.664062 C 448.453125 349.664062 449.707031 349.664062 450.960938 349.664062 C 452.402344 349.664062 453.84375 349.765625 455.242188 350.113281 C 457.875 350.789062 460.386719 352.328125 462.136719 354.378906 C 463.183594 355.628906 463.945312 356.898438 464.5625 358.398438 C 464.769531 358.867188 464.933594 359.359375 465.058594 359.851562 C 466.003906 359.605469 466.972656 359.484375 467.9375 359.484375 C 468.90625 359.484375 469.871094 359.605469 470.820312 359.851562 C 470.941406 359.382812 471.085938 358.929688 471.269531 358.480469 C 471.558594 357.761719 471.867188 357.0625 472.257812 356.386719 C 472.671875 355.710938 473.144531 355.074219 473.660156 354.460938 C 474.5 353.433594 475.570312 352.554688 476.703125 351.816406 C 478.882812 350.402344 481.519531 349.664062 484.109375 349.664062 C 486.4375 349.664062 488.761719 349.664062 491.085938 349.664062 C 493.945312 349.664062 496.785156 349.664062 499.648438 349.664062 C 501.519531 349.664062 503.351562 350.03125 504.976562 351.035156 C 507.753906 352.738281 509.484375 355.773438 509.503906 359.03125 C 509.503906 359.21875 509.503906 359.421875 509.503906 359.628906 C 509.503906 359.976562 509.503906 360.304688 509.503906 360.652344 C 511.847656 360.652344 514.175781 360.652344 516.519531 360.652344 C 518.105469 360.652344 519.296875 361.945312 519.339844 363.523438 Z M 519.339844 363.523438 " fill-opacity="1" fill-rule="nonzero"/></g></svg>