<svg xmlns="http://www.w3.org/2000/svg" xmlns:xlink="http://www.w3.org/1999/xlink" width="1080" zoomAndPan="magnify" viewBox="0 0 810 809.999993" height="1080" preserveAspectRatio="xMidYMid meet" version="1.0"><defs><g/><clipPath id="db07577f42"><path d="M 393.261719 304.210938 L 542.511719 304.210938 L 542.511719 505.960938 L 393.261719 505.960938 Z M 393.261719 304.210938 " clip-rule="nonzero"/></clipPath><clipPath id="64f573e345"><path d="M 415.101562 348.460938 L 520.101562 348.460938 L 520.101562 385.960938 L 415.101562 385.960938 Z M 415.101562 348.460938 " clip-rule="nonzero"/></clipPath></defs><path fill="#ff5757" d="M 150.839844 209.671875 L 659.488281 209.671875 C 713.464844 209.671875 757.21875 253.398438 757.21875 307.335938 L 757.21875 502.664062 C 757.21875 556.601562 713.464844 600.328125 659.488281 600.328125 L 150.839844 600.328125 C 96.867188 600.328125 53.113281 556.601562 53.113281 502.664062 L 53.113281 307.335938 C 53.113281 253.398438 96.867188 209.671875 150.839844 209.671875 " fill-opacity="1" fill-rule="nonzero"/><g fill="#000000" fill-opacity="1"><g transform="translate(147.720728, 481.826374)"><g><path d="M 10.40625 0 C 9.769531 0 9.453125 -0.394531 9.453125 -1.1875 L 9.921875 -163.5625 C 9.921875 -164.1875 10.238281 -164.5 10.875 -164.5 L 39.703125 -164.5 C 40.335938 -164.5 40.890625 -164.1875 41.359375 -163.5625 L 62.875 -132.359375 L 84.375 -163.5625 C 84.851562 -164.1875 85.40625 -164.5 86.03125 -164.5 L 115.109375 -164.5 C 115.734375 -164.5 116.046875 -164.1875 116.046875 -163.5625 L 116.53125 -1.1875 C 116.53125 -0.394531 116.210938 0 115.578125 0 L 88.875 0 C 88.238281 0 87.921875 -0.394531 87.921875 -1.1875 L 87.6875 -121.71875 L 62.875 -85.796875 L 38.296875 -121.71875 L 38.046875 -1.1875 C 38.046875 -0.394531 37.734375 0 37.109375 0 Z M 10.40625 0 "/></g></g></g><g fill="#000000" fill-opacity="1"><g transform="translate(274.638564, 481.826374)"><g><path d="M 11.578125 0 C 10.316406 0 9.6875 -0.550781 9.6875 -1.65625 L 9.453125 -162.609375 C 9.453125 -163.867188 10.082031 -164.5 11.34375 -164.5 L 32.625 -164.5 L 72.5625 -71.375 L 71.375 -162.609375 C 71.375 -163.867188 72.082031 -164.5 73.5 -164.5 L 96.90625 -164.5 C 97.851562 -164.5 98.328125 -163.867188 98.328125 -162.609375 L 98.5625 -1.421875 C 98.5625 -0.472656 98.164062 0 97.375 0 L 76.578125 0 L 35.6875 -86.984375 L 37.34375 -1.890625 C 37.34375 -0.628906 36.632812 0 35.21875 0 Z M 11.578125 0 "/></g></g></g><g fill="#000000" fill-opacity="1"><g transform="translate(384.3052, 481.826374)"><g/></g></g><g fill="#000000" fill-opacity="1"><g transform="translate(419.284412, 481.826374)"><g/></g></g><g fill="#000000" fill-opacity="1"><g transform="translate(454.263625, 481.826374)"><g/></g></g><g fill="#000000" fill-opacity="1"><g transform="translate(489.242838, 481.826374)"><g/></g></g><g fill="#000000" fill-opacity="1"><g transform="translate(524.22205, 481.826374)"><g/></g></g><g fill="#000000" fill-opacity="1"><g transform="translate(559.215539, 481.826374)"><g><path d="M 49.640625 2.359375 C 41.128906 2.359375 33.367188 0.191406 26.359375 -4.140625 C 19.347656 -8.472656 13.753906 -14.222656 9.578125 -21.390625 C 5.398438 -28.554688 3.3125 -36.472656 3.3125 -45.140625 L 3.3125 -56.015625 C 3.3125 -56.804688 3.703125 -57.203125 4.484375 -57.203125 L 30.96875 -57.203125 C 31.59375 -57.203125 31.90625 -56.804688 31.90625 -56.015625 L 31.90625 -45.140625 C 31.90625 -39.941406 33.640625 -35.488281 37.109375 -31.78125 C 40.578125 -28.082031 44.753906 -26.234375 49.640625 -26.234375 C 54.523438 -26.234375 58.695312 -28.125 62.15625 -31.90625 C 65.625 -35.6875 67.359375 -40.097656 67.359375 -45.140625 C 67.359375 -50.972656 63.578125 -56.015625 56.015625 -60.265625 C 53.492188 -61.691406 49.550781 -63.898438 44.1875 -66.890625 C 38.832031 -69.878906 33.796875 -72.71875 29.078125 -75.40625 C 20.410156 -80.445312 13.988281 -86.785156 9.8125 -94.421875 C 5.632812 -102.066406 3.546875 -110.695312 3.546875 -120.3125 C 3.546875 -129.132812 5.671875 -137.050781 9.921875 -144.0625 C 14.179688 -151.070312 19.816406 -156.625 26.828125 -160.71875 C 33.835938 -164.820312 41.441406 -166.875 49.640625 -166.875 C 57.984375 -166.875 65.660156 -164.785156 72.671875 -160.609375 C 79.691406 -156.429688 85.285156 -150.835938 89.453125 -143.828125 C 93.628906 -136.816406 95.71875 -128.976562 95.71875 -120.3125 L 95.71875 -100.921875 C 95.71875 -100.296875 95.40625 -99.984375 94.78125 -99.984375 L 68.3125 -99.984375 C 67.675781 -99.984375 67.359375 -100.296875 67.359375 -100.921875 L 67.125 -120.3125 C 67.125 -125.820312 65.390625 -130.3125 61.921875 -133.78125 C 58.453125 -137.25 54.359375 -138.984375 49.640625 -138.984375 C 44.753906 -138.984375 40.578125 -137.128906 37.109375 -133.421875 C 33.640625 -129.722656 31.90625 -125.351562 31.90625 -120.3125 C 31.90625 -115.101562 33.007812 -110.765625 35.21875 -107.296875 C 37.425781 -103.835938 41.441406 -100.53125 47.265625 -97.375 C 48.054688 -96.90625 49.59375 -96.078125 51.875 -94.890625 C 54.164062 -93.710938 56.648438 -92.375 59.328125 -90.875 C 62.003906 -89.382812 64.40625 -88.085938 66.53125 -86.984375 C 68.65625 -85.878906 69.957031 -85.171875 70.4375 -84.859375 C 78.3125 -80.441406 84.535156 -75.039062 89.109375 -68.65625 C 93.679688 -62.28125 95.96875 -54.441406 95.96875 -45.140625 C 95.96875 -36.160156 93.878906 -28.082031 89.703125 -20.90625 C 85.523438 -13.738281 79.929688 -8.066406 72.921875 -3.890625 C 65.910156 0.273438 58.148438 2.359375 49.640625 2.359375 Z M 49.640625 2.359375 "/></g></g></g><g clip-path="url(#db07577f42)"><path fill="#000000" d="M 533.480469 505.085938 C 532.28125 505.082031 531.128906 504.839844 530.027344 504.363281 C 528.925781 503.886719 527.964844 503.210938 527.140625 502.335938 L 467.886719 439.582031 L 408.632812 502.335938 C 408.03125 502.96875 407.347656 503.496094 406.589844 503.925781 C 405.828125 504.355469 405.023438 504.664062 404.167969 504.851562 C 403.316406 505.035156 402.457031 505.09375 401.585938 505.023438 C 400.714844 504.953125 399.875 504.757812 399.0625 504.4375 C 398.25 504.117188 397.503906 503.683594 396.824219 503.136719 C 396.140625 502.59375 395.554688 501.960938 395.0625 501.238281 C 394.570312 500.519531 394.195312 499.742188 393.9375 498.910156 C 393.679688 498.078125 393.546875 497.222656 393.542969 496.351562 L 393.542969 312.945312 C 393.542969 312.371094 393.601562 311.800781 393.710938 311.238281 C 393.824219 310.675781 393.992188 310.132812 394.210938 309.601562 C 394.429688 309.070312 394.699219 308.566406 395.019531 308.089844 C 395.335938 307.613281 395.699219 307.171875 396.105469 306.769531 C 396.511719 306.363281 396.953125 306 397.429688 305.679688 C 397.910156 305.363281 398.414062 305.09375 398.945312 304.875 C 399.472656 304.65625 400.019531 304.488281 400.585938 304.378906 C 401.148438 304.265625 401.714844 304.210938 402.289062 304.210938 L 533.480469 304.210938 C 534.054688 304.210938 534.625 304.265625 535.1875 304.378906 C 535.75 304.488281 536.296875 304.65625 536.828125 304.875 C 537.359375 305.09375 537.863281 305.363281 538.339844 305.679688 C 538.816406 306 539.257812 306.363281 539.664062 306.769531 C 540.070312 307.171875 540.433594 307.613281 540.753906 308.089844 C 541.074219 308.566406 541.34375 309.070312 541.5625 309.601562 C 541.78125 310.132812 541.949219 310.675781 542.058594 311.238281 C 542.171875 311.800781 542.226562 312.371094 542.226562 312.945312 L 542.226562 496.351562 C 542.226562 496.925781 542.171875 497.492188 542.058594 498.054688 C 541.949219 498.617188 541.78125 499.164062 541.5625 499.695312 C 541.34375 500.226562 541.074219 500.726562 540.753906 501.203125 C 540.433594 501.679688 540.070312 502.121094 539.664062 502.527344 C 539.257812 502.933594 538.816406 503.296875 538.339844 503.613281 C 537.863281 503.933594 537.359375 504.203125 536.828125 504.421875 C 536.296875 504.640625 535.75 504.804688 535.1875 504.917969 C 534.625 505.03125 534.054688 505.085938 533.480469 505.085938 Z M 467.886719 418.316406 C 469.085938 418.320312 470.238281 418.5625 471.339844 419.039062 C 472.441406 419.519531 473.402344 420.195312 474.226562 421.066406 L 524.734375 474.519531 L 524.734375 321.675781 L 411.035156 321.675781 L 411.035156 474.519531 L 461.546875 421.023438 C 462.371094 420.15625 463.335938 419.488281 464.4375 419.019531 C 465.539062 418.550781 466.6875 418.316406 467.886719 418.316406 Z M 467.886719 418.316406 " fill-opacity="1" fill-rule="nonzero"/></g><g clip-path="url(#64f573e345)"><path fill="#000000" d="M 520.101562 360.417969 C 520.101562 361.40625 519.304688 362.207031 518.3125 362.207031 L 514.105469 362.207031 C 514.066406 362.652344 514.003906 363.097656 513.925781 363.542969 C 513.546875 365.566406 512.773438 367.433594 511.730469 369.199219 C 510.488281 371.324219 508.957031 373.21875 507.257812 375 C 505.367188 376.980469 503.300781 378.761719 501.117188 380.425781 C 499.191406 381.902344 497.1875 383.273438 495.132812 384.570312 C 494.421875 385.015625 493.699219 385.460938 492.988281 385.917969 C 492.964844 385.917969 492.953125 385.917969 492.925781 385.917969 C 492.785156 385.832031 492.648438 385.730469 492.496094 385.640625 C 489.742188 383.972656 487.066406 382.207031 484.53125 380.238281 C 481.84375 378.152344 479.320312 375.886719 477.101562 373.292969 C 475.757812 371.71875 474.550781 370.027344 473.613281 368.171875 C 472.828125 366.644531 472.242188 365.054688 471.953125 363.367188 C 471.886719 362.984375 471.851562 362.601562 471.800781 362.222656 L 463.988281 362.222656 C 463.949219 362.667969 463.886719 363.113281 463.808594 363.554688 C 463.429688 365.578125 462.65625 367.445312 461.617188 369.214844 C 460.375 371.335938 458.839844 373.230469 457.140625 375.011719 C 455.25 376.996094 453.183594 378.773438 451.003906 380.441406 C 449.074219 381.914062 447.070312 383.289062 445.015625 384.585938 C 444.308594 385.03125 443.582031 385.472656 442.875 385.933594 C 442.847656 385.933594 442.835938 385.933594 442.808594 385.933594 C 442.671875 385.84375 442.53125 385.742188 442.378906 385.652344 C 439.628906 383.988281 436.953125 382.21875 434.414062 380.25 C 431.726562 378.164062 429.203125 375.902344 426.984375 373.308594 C 425.640625 371.730469 424.433594 370.039062 423.496094 368.183594 C 422.710938 366.660156 422.128906 365.070312 421.835938 363.378906 C 421.773438 362.996094 421.734375 362.617188 421.683594 362.234375 L 416.890625 362.234375 C 415.902344 362.207031 415.101562 361.40625 415.101562 360.417969 C 415.101562 359.425781 415.902344 358.625 416.890625 358.625 L 421.898438 358.625 C 422.203125 357.148438 422.75 355.761719 423.496094 354.453125 C 424.230469 353.195312 425.09375 352.050781 426.199219 351.097656 C 427.796875 349.710938 429.660156 348.910156 431.753906 348.617188 C 432.082031 348.566406 432.425781 348.542969 432.753906 348.492188 C 433.335938 348.492188 433.921875 348.492188 434.503906 348.492188 C 434.820312 348.527344 435.125 348.554688 435.441406 348.59375 C 438.09375 348.972656 440.464844 350.027344 442.542969 351.71875 C 442.644531 351.796875 442.722656 351.960938 442.847656 351.960938 C 442.976562 351.960938 443.050781 351.808594 443.152344 351.71875 C 445.195312 350.054688 447.515625 349 450.128906 348.617188 C 450.457031 348.566406 450.785156 348.542969 451.117188 348.492188 C 451.699219 348.492188 452.28125 348.492188 452.867188 348.492188 C 452.917969 348.503906 452.980469 348.515625 453.03125 348.515625 C 453.476562 348.554688 453.917969 348.605469 454.363281 348.683594 C 456.644531 349.089844 458.597656 350.117188 460.207031 351.785156 C 460.832031 352.433594 461.375 353.144531 461.84375 353.90625 C 462.65625 355.203125 463.265625 356.5625 463.632812 358.027344 L 472.140625 358.027344 C 472.457031 356.78125 472.953125 355.585938 473.613281 354.453125 C 474.347656 353.195312 475.210938 352.050781 476.3125 351.097656 C 477.910156 349.710938 479.777344 348.910156 481.867188 348.617188 C 482.199219 348.566406 482.539062 348.542969 482.871094 348.492188 C 483.453125 348.492188 484.035156 348.492188 484.621094 348.492188 C 484.9375 348.527344 485.242188 348.554688 485.558594 348.59375 C 488.207031 348.972656 490.582031 350.027344 492.660156 351.71875 C 492.761719 351.796875 492.835938 351.960938 492.964844 351.960938 C 493.089844 351.960938 493.167969 351.808594 493.269531 351.71875 C 495.308594 350.054688 497.632812 349 500.242188 348.617188 C 500.574219 348.566406 500.902344 348.542969 501.230469 348.492188 C 501.816406 348.492188 502.398438 348.492188 502.980469 348.492188 C 503.03125 348.503906 503.097656 348.515625 503.148438 348.515625 C 503.589844 348.554688 504.035156 348.605469 504.480469 348.683594 C 506.761719 349.089844 508.714844 350.117188 510.324219 351.785156 C 510.945312 352.433594 511.492188 353.144531 511.960938 353.90625 C 512.875 355.367188 513.546875 356.933594 513.886719 358.625 L 518.3125 358.625 C 519.304688 358.625 520.101562 359.425781 520.101562 360.417969 Z M 520.101562 360.417969 " fill-opacity="1" fill-rule="nonzero"/></g></svg>