<svg xmlns="http://www.w3.org/2000/svg" xmlns:xlink="http://www.w3.org/1999/xlink" width="1080" zoomAndPan="magnify" viewBox="0 0 810 809.999993" height="1080" preserveAspectRatio="xMidYMid meet" version="1.0"><defs><g/><clipPath id="49784f0cab"><path d="M 393.261719 304.210938 L 542.511719 304.210938 L 542.511719 505.960938 L 393.261719 505.960938 Z M 393.261719 304.210938 " clip-rule="nonzero"/></clipPath></defs><path fill="#ff5757" d="M 150.839844 209.671875 L 659.488281 209.671875 C 713.464844 209.671875 757.21875 253.398438 757.21875 307.335938 L 757.21875 502.664062 C 757.21875 556.601562 713.464844 600.328125 659.488281 600.328125 L 150.839844 600.328125 C 96.867188 600.328125 53.113281 556.601562 53.113281 502.664062 L 53.113281 307.335938 C 53.113281 253.398438 96.867188 209.671875 150.839844 209.671875 " fill-opacity="1" fill-rule="nonzero"/><g fill="#000000" fill-opacity="1"><g transform="translate(147.720728, 481.826331)"><g><path d="M 10.40625 0 C 9.769531 0 9.453125 -0.394531 9.453125 -1.1875 L 9.921875 -163.5625 C 9.921875 -164.1875 10.238281 -164.5 10.875 -164.5 L 39.703125 -164.5 C 40.335938 -164.5 40.890625 -164.1875 41.359375 -163.5625 L 62.875 -132.359375 L 84.375 -163.5625 C 84.851562 -164.1875 85.40625 -164.5 86.03125 -164.5 L 115.109375 -164.5 C 115.734375 -164.5 116.046875 -164.1875 116.046875 -163.5625 L 116.53125 -1.1875 C 116.53125 -0.394531 116.210938 0 115.578125 0 L 88.875 0 C 88.238281 0 87.921875 -0.394531 87.921875 -1.1875 L 87.6875 -121.71875 L 62.875 -85.796875 L 38.296875 -121.71875 L 38.046875 -1.1875 C 38.046875 -0.394531 37.734375 0 37.109375 0 Z M 10.40625 0 "/></g></g></g><g fill="#000000" fill-opacity="1"><g transform="translate(274.638564, 481.826331)"><g><path d="M 11.578125 0 C 10.316406 0 9.6875 -0.550781 9.6875 -1.65625 L 9.453125 -162.609375 C 9.453125 -163.867188 10.082031 -164.5 11.34375 -164.5 L 32.625 -164.5 L 72.5625 -71.375 L 71.375 -162.609375 C 71.375 -163.867188 72.082031 -164.5 73.5 -164.5 L 96.90625 -164.5 C 97.851562 -164.5 98.328125 -163.867188 98.328125 -162.609375 L 98.5625 -1.421875 C 98.5625 -0.472656 98.164062 0 97.375 0 L 76.578125 0 L 35.6875 -86.984375 L 37.34375 -1.890625 C 37.34375 -0.628906 36.632812 0 35.21875 0 Z M 11.578125 0 "/></g></g></g><g fill="#000000" fill-opacity="1"><g transform="translate(384.3052, 481.826331)"><g/></g></g><g fill="#000000" fill-opacity="1"><g transform="translate(419.284412, 481.826331)"><g/></g></g><g fill="#000000" fill-opacity="1"><g transform="translate(454.263625, 481.826331)"><g/></g></g><g fill="#000000" fill-opacity="1"><g transform="translate(489.242838, 481.826331)"><g/></g></g><g fill="#000000" fill-opacity="1"><g transform="translate(524.22205, 481.826331)"><g/></g></g><g fill="#000000" fill-opacity="1"><g transform="translate(559.215539, 481.826331)"><g><path d="M 49.640625 2.359375 C 41.128906 2.359375 33.367188 0.191406 26.359375 -4.140625 C 19.347656 -8.472656 13.753906 -14.222656 9.578125 -21.390625 C 5.398438 -28.554688 3.3125 -36.472656 3.3125 -45.140625 L 3.3125 -56.015625 C 3.3125 -56.804688 3.703125 -57.203125 4.484375 -57.203125 L 30.96875 -57.203125 C 31.59375 -57.203125 31.90625 -56.804688 31.90625 -56.015625 L 31.90625 -45.140625 C 31.90625 -39.941406 33.640625 -35.488281 37.109375 -31.78125 C 40.578125 -28.082031 44.753906 -26.234375 49.640625 -26.234375 C 54.523438 -26.234375 58.695312 -28.125 62.15625 -31.90625 C 65.625 -35.6875 67.359375 -40.097656 67.359375 -45.140625 C 67.359375 -50.972656 63.578125 -56.015625 56.015625 -60.265625 C 53.492188 -61.691406 49.550781 -63.898438 44.1875 -66.890625 C 38.832031 -69.878906 33.796875 -72.71875 29.078125 -75.40625 C 20.410156 -80.445312 13.988281 -86.785156 9.8125 -94.421875 C 5.632812 -102.066406 3.546875 -110.695312 3.546875 -120.3125 C 3.546875 -129.132812 5.671875 -137.050781 9.921875 -144.0625 C 14.179688 -151.070312 19.816406 -156.625 26.828125 -160.71875 C 33.835938 -164.820312 41.441406 -166.875 49.640625 -166.875 C 57.984375 -166.875 65.660156 -164.785156 72.671875 -160.609375 C 79.691406 -156.429688 85.285156 -150.835938 89.453125 -143.828125 C 93.628906 -136.816406 95.71875 -128.976562 95.71875 -120.3125 L 95.71875 -100.921875 C 95.71875 -100.296875 95.40625 -99.984375 94.78125 -99.984375 L 68.3125 -99.984375 C 67.675781 -99.984375 67.359375 -100.296875 67.359375 -100.921875 L 67.125 -120.3125 C 67.125 -125.820312 65.390625 -130.3125 61.921875 -133.78125 C 58.453125 -137.25 54.359375 -138.984375 49.640625 -138.984375 C 44.753906 -138.984375 40.578125 -137.128906 37.109375 -133.421875 C 33.640625 -129.722656 31.90625 -125.351562 31.90625 -120.3125 C 31.90625 -115.101562 33.007812 -110.765625 35.21875 -107.296875 C 37.425781 -103.835938 41.441406 -100.53125 47.265625 -97.375 C 48.054688 -96.90625 49.59375 -96.078125 51.875 -94.890625 C 54.164062 -93.710938 56.648438 -92.375 59.328125 -90.875 C 62.003906 -89.382812 64.40625 -88.085938 66.53125 -86.984375 C 68.65625 -85.878906 69.957031 -85.171875 70.4375 -84.859375 C 78.3125 -80.441406 84.535156 -75.039062 89.109375 -68.65625 C 93.679688 -62.28125 95.96875 -54.441406 95.96875 -45.140625 C 95.96875 -36.160156 93.878906 -28.082031 89.703125 -20.90625 C 85.523438 -13.738281 79.929688 -8.066406 72.921875 -3.890625 C 65.910156 0.273438 58.148438 2.359375 49.640625 2.359375 Z M 49.640625 2.359375 "/></g></g></g><g clip-path="url(#49784f0cab)"><path fill="#000000" d="M 533.480469 505.085938 C 532.28125 505.082031 531.128906 504.839844 530.027344 504.363281 C 528.925781 503.886719 527.964844 503.210938 527.140625 502.335938 L 467.886719 439.582031 L 408.632812 502.335938 C 408.03125 502.96875 407.347656 503.496094 406.589844 503.925781 C 405.828125 504.355469 405.023438 504.664062 404.167969 504.851562 C 403.316406 505.035156 402.457031 505.09375 401.585938 505.023438 C 400.714844 504.953125 399.875 504.757812 399.0625 504.4375 C 398.25 504.117188 397.503906 503.683594 396.824219 503.136719 C 396.140625 502.59375 395.554688 501.960938 395.0625 501.238281 C 394.570312 500.519531 394.195312 499.742188 393.9375 498.910156 C 393.679688 498.078125 393.546875 497.222656 393.542969 496.351562 L 393.542969 312.945312 C 393.542969 312.371094 393.601562 311.800781 393.710938 311.238281 C 393.824219 310.675781 393.992188 310.132812 394.210938 309.601562 C 394.429688 309.070312 394.699219 308.566406 395.019531 308.089844 C 395.335938 307.613281 395.699219 307.171875 396.105469 306.769531 C 396.511719 306.363281 396.953125 306 397.429688 305.683594 C 397.910156 305.363281 398.414062 305.09375 398.945312 304.875 C 399.472656 304.65625 400.019531 304.488281 400.585938 304.378906 C 401.148438 304.265625 401.714844 304.210938 402.289062 304.210938 L 533.480469 304.210938 C 534.054688 304.210938 534.625 304.265625 535.1875 304.378906 C 535.75 304.488281 536.296875 304.65625 536.828125 304.875 C 537.359375 305.09375 537.863281 305.363281 538.339844 305.683594 C 538.816406 306 539.257812 306.363281 539.664062 306.769531 C 540.070312 307.171875 540.433594 307.613281 540.753906 308.089844 C 541.074219 308.566406 541.34375 309.070312 541.5625 309.601562 C 541.78125 310.132812 541.949219 310.675781 542.058594 311.238281 C 542.171875 311.800781 542.226562 312.371094 542.226562 312.945312 L 542.226562 496.351562 C 542.226562 496.925781 542.171875 497.492188 542.058594 498.054688 C 541.949219 498.617188 541.78125 499.164062 541.5625 499.695312 C 541.34375 500.226562 541.074219 500.726562 540.753906 501.203125 C 540.433594 501.683594 540.070312 502.121094 539.664062 502.527344 C 539.257812 502.933594 538.816406 503.296875 538.339844 503.613281 C 537.863281 503.933594 537.359375 504.203125 536.828125 504.421875 C 536.296875 504.640625 535.75 504.808594 535.1875 504.917969 C 534.625 505.03125 534.054688 505.085938 533.480469 505.085938 Z M 467.886719 418.316406 C 469.085938 418.320312 470.238281 418.5625 471.339844 419.039062 C 472.441406 419.519531 473.402344 420.195312 474.226562 421.066406 L 524.734375 474.519531 L 524.734375 321.675781 L 411.035156 321.675781 L 411.035156 474.519531 L 461.546875 421.023438 C 462.371094 420.15625 463.335938 419.488281 464.4375 419.019531 C 465.539062 418.550781 466.6875 418.316406 467.886719 418.316406 Z M 467.886719 418.316406 " fill-opacity="1" fill-rule="nonzero"/></g></svg>